<?xml version="1.0" standalone="no"?>
<!DOCTYPE svg PUBLIC "-//W3C//DTD SVG 20010904//EN"
 "http://www.w3.org/TR/2001/REC-SVG-20010904/DTD/svg10.dtd">
<svg version="1.0" xmlns="http://www.w3.org/2000/svg"
 width="460.000000pt" height="415.000000pt" viewBox="0 0 460.000000 415.000000"
 preserveAspectRatio="xMidYMid meet">

<g transform="translate(0.000000,415.000000) scale(0.100000,-0.100000)"
fill="#000000" stroke="none">
<path d="M1594 3600 c-154 -20 -287 -57 -436 -124 l-57 -25 -47 20 c-53 24
-88 21 -142 -13 -43 -27 -64 -74 -61 -144 2 -48 -1 -58 -28 -87 -93 -99 -178
-251 -219 -392 -82 -283 -42 -611 113 -918 106 -211 295 -447 480 -598 176
-145 451 -303 628 -362 l70 -24 8 -64 c16 -135 113 -263 235 -310 79 -31 205
-31 282 -1 100 39 200 153 224 254 7 30 8 31 130 53 176 32 359 108 499 208
179 128 330 345 389 558 29 109 37 401 13 519 -57 279 -217 576 -433 801
l-107 112 3 48 c3 41 0 52 -22 74 -27 27 -60 32 -100 14 -21 -10 -34 -4 -122
54 -255 168 -521 277 -798 328 -127 23 -391 33 -502 19z m414 -50 c120 -13
315 -60 433 -106 120 -45 305 -140 409 -210 106 -71 120 -83 114 -99 -3 -7 2
-29 10 -49 17 -41 54 -60 102 -53 28 5 38 -1 86 -51 215 -221 353 -457 426
-727 25 -92 27 -115 27 -290 0 -171 -2 -197 -23 -265 -48 -154 -132 -299 -236
-408 -40 -44 -156 -130 -226 -170 -117 -66 -352 -142 -440 -142 -35 0 -38 2
-50 43 -63 213 -312 326 -516 233 -67 -31 -146 -102 -175 -159 -15 -29 -24
-37 -37 -32 -9 4 -40 15 -68 25 -128 45 -343 164 -481 266 -129 96 -337 312
-425 444 -249 371 -322 778 -197 1100 55 144 159 305 189 293 8 -3 35 -7 60
-10 91 -9 163 64 158 159 l-3 46 55 30 c213 114 511 163 808 132z"/>
<path d="M1854 3269 c-262 -44 -469 -210 -540 -436 -24 -76 -29 -225 -11 -320
67 -351 399 -705 787 -841 172 -60 266 -75 434 -69 192 6 301 37 430 119 39
25 58 31 95 30 89 -5 148 59 137 147 -10 76 -10 83 13 165 85 317 -90 702
-439 962 -152 113 -379 211 -554 239 -98 16 -269 18 -352 4z m401 -64 c93 -18
235 -69 315 -113 296 -162 498 -406 561 -678 26 -114 23 -221 -11 -326 l-21
-68 -42 0 c-86 0 -143 -64 -135 -151 l5 -47 -51 -30 c-324 -193 -863 -81
-1194 248 -98 98 -157 178 -208 285 -130 267 -109 519 56 699 97 105 234 174
392 196 77 11 238 4 333 -15z"/>
<path d="M2080 2936 c-77 -23 -98 -34 -144 -76 -64 -59 -90 -125 -91 -230 -1
-67 -6 -95 -24 -134 -28 -58 -23 -111 14 -167 34 -52 84 -73 161 -66 55 4 67
2 100 -20 105 -72 277 -120 391 -110 175 17 303 144 303 303 0 146 -120 325
-283 422 -126 75 -319 111 -427 78z m245 -61 c149 -38 297 -152 352 -272 134
-290 -152 -491 -474 -333 -46 23 -83 45 -83 49 0 5 7 26 16 47 46 111 -40 234
-164 234 -42 0 -42 0 -42 38 0 179 185 290 395 237z"/>
</g>
</svg>
